<?xml version="1.0" encoding="utf-8"?>
<!-- Generator: Adobe Illustrator 22.1.0, SVG Export Plug-In . SVG Version: 6.00 Build 0)  -->
<svg version="1.1" id="Layer_1" xmlns="http://www.w3.org/2000/svg" xmlns:xlink="http://www.w3.org/1999/xlink" x="0px" y="0px"
	 viewBox="0 0 595.3 841.9" style="enable-background:new 0 0 595.3 841.9;" xml:space="preserve">
<style type="text/css">
	.st0{fill:none;}
	.st1{fill:#1B1473;}
	.st2{font-family:'StopD';}
	.st3{font-size:16px;}
	.st4{fill:#009370;}
</style>
<rect x="239.8" y="412.3" class="st0" width="161.3" height="24.6"/>
<text transform="matrix(1 0 0 1 239.8477 422.9454)" class="st1 st2 st3">Devendra Textiles</text>
<g id="XMLID_1_">
	<g>
		<path class="st4" d="M216.7,427.3c0.9,0.1,1.8,0.1,2.7,0.1c5.5-0.1,9.8-2.1,9.4-10.6c0,0-0.1-1.5-1.1-3.3
			c-1.4-2.8-4.5-6.5-11.7-7.9c-0.4-0.1-1-0.1-1.7-0.2c-2.6-0.1-6.9,0-10.5,0.1c-3.4,0.1-6.2,0.3-6.2,0.3s13-6.4,24.6-2.4
			c11.6,4.1,12.2,12.5,12.2,12.5c0.5,12.7-8.6,13.7-17.8,12.9L216.7,427.3L216.7,427.3z"/>
		<path class="st4" d="M219.4,427.3c-0.9,0-1.8,0-2.7-0.1l-2.4-2.4v-19.3c0-0.1,0-0.1,0.1-0.1c0,0,0.1,0,0.1,0l5,5v4h6.3v2h-6.3
			V427.3z"/>
		<path class="st4" d="M208.9,426.4c2.5,0.3,5.2,0.7,7.8,0.8l0.1,0.1l-0.1,1.5c-8.7-0.7-17.5-2.9-19,1.7c0.7-3,3.1-4.1,6.1-4.3v0
			v-20.6c0-0.1,0.1-0.1,0.1-0.1c0,0,0.1,0,0.1,0l5,5V426.4L208.9,426.4z"/>
	</g>
	<g>
	</g>
</g>
</svg>
